# xmcd
#
# Track frame offsets:
#	150
#	19752
#	35605
#	50563
#	67194
#	83316
#	106239
#	119287
#	138003
#	149989
#	163044
#
# Disc length: 2430 seconds
#
# Revision: 1
# Processed by: cddbd v1.5.2PL0 Copyright (c) Steve Scherf et al.
# Submitted via: EZCDAudioConverter 5.0.1.1
#
DISCID=97097c0b
DTITLE=Lovell Sisters - Time To Grow
DYEAR=2009
DGENRE=Country
TTITLE0=Time To Grow
TTITLE1=In My Time Of Dyin'
TTITLE2=Take One Moment
TTITLE3=Ichetucknee Chutney
TTITLE4=Subway Song
TTITLE5=Paulita Maxwell
TTITLE6=The Door In The Wall
TTITLE7=Distance
TTITLE8=We're All The Way
TTITLE9=I'm Blowin' Away
TTITLE10=The Lovell Sisters - You Remain
EXTD=
EXTT0=
EXTT1=
EXTT2=
EXTT3=
EXTT4=
EXTT5=
EXTT6=
EXTT7=
EXTT8=
EXTT9=
EXTT10=
PLAYORDER=
